# xmcd CD database file generated by Grip 3.0.5
# 
# Track frame offsets:
#       183
#       24780
#       53343
#       80868
#       113675
#       142253
#       180000
#       197190
#       222148
#       250803
#       272530
# 
# Disc length: 4228 seconds
# 
# Revision: 1
# Processed by: cddbd v1.4PL0 Copyright (c) Steve Scherf et al.
# Submitted via: Grip 3.0.5
# 
DISCID=8d10820b
DTITLE=Dzem - Wehikul Czasu - Spodek '92 vol.1
DYEAR=1900
DGENRE=Blues
TTITLE0=Zielony Piotrus
TTITLE1=Zloty Paw
TTITLE2=Wehikul Czasu - To Bylby Cud
TTITLE3=Detox
TTITLE4=Sen O Victorii
TTITLE5=Ostatnie Widzenie
TTITLE6=Czlowieku, Co Sie z Toba Dzieje
TTITLE7=Mala Aleja Roz
TTITLE8=Mamy Forse, Mamy Czas
TTITLE9=Poznalem Go Po Czarnym Kapeluszu
TTITLE10=Whisky
EXTD=
EXTT0=
EXTT1=
EXTT2=
EXTT3=
EXTT4=
EXTT5=
EXTT6=
EXTT7=
EXTT8=
EXTT9=
EXTT10=
PLAYORDER=
